<svg width="410" height="294" viewBox="0 0 410 294" fill="none" xmlns="http://www.w3.org/2000/svg">
<path d="M51.6689 149.633L46.5425 154.817L45.2561 156.372V175.745L46.5425 178.029L51.6689 183.213L52.8977 184.5H365.051L367.202 183.213L372.328 178.029L373.615 176.263V156.257L372.328 154.817L367.202 149.633L365.781 148.346H53.4353L51.6689 149.633Z" fill="#0009AF"/>
<path d="M51.6687 180.66H49.0959V183.232H51.6687V180.66Z" fill="white"/>
<path d="M49.1153 178.029H46.5425V180.602H49.1153V178.029Z" fill="white"/>
<path d="M46.5295 178.019L46.5295 154.807H43.9568L43.9568 178.019H46.5295Z" fill="white"/>
<path d="M367.194 183.208L369.767 183.208L369.767 180.636L367.194 180.636L367.194 183.208Z" fill="white"/>
<path d="M369.75 180.591L372.323 180.591L372.323 178.019L369.75 178.019L369.75 180.591Z" fill="white"/>
<path d="M374.889 178.019L374.889 154.806L372.316 154.806L372.316 178.019L374.889 178.019Z" fill="white"/>
<path d="M51.6664 185.784L367.199 185.784V183.211L51.6664 183.211V185.784Z" fill="white"/>
<path d="M367.194 152.184H369.767V149.611H367.194V152.184Z" fill="white"/>
<path d="M369.75 154.821H372.323V152.248H369.75V154.821Z" fill="white"/>
<path d="M51.6687 149.632H49.0959V152.205H51.6687V149.632Z" fill="white"/>
<path d="M49.1153 152.244H46.5425V154.816H49.1153V152.244Z" fill="white"/>
<path d="M367.202 147.06H51.6687V149.632H367.202V147.06Z" fill="white"/>
<path d="M65.5 168H67V165H65.5V168ZM59.5 172.5V171H58V160.5H59.5V159H68.5V160.5H70V169.5H64V168H62.5V165H64V163.5H67V160.5H61V171H70V172.5H59.5Z" fill="white"/>
<path d="M109.979 72.2371L104.853 77.4211L103.566 78.9763V82.1443L104.853 84.4291L109.979 89.6131L111.227 90.8995H306.741L308.891 89.6131L314.018 84.4291L315.304 82.6627V78.8611L314.018 77.4211L308.891 72.2371L307.47 70.9507H111.746L109.979 72.2371Z" fill="#0009AF"/>
<path d="M109.998 87.0591H107.426V89.6319H109.998V87.0591Z" fill="white"/>
<path d="M107.426 84.4287H104.853V87.0015H107.426V84.4287Z" fill="white"/>
<path d="M104.849 84.4348V77.4268H102.276V84.4348H104.849Z" fill="white"/>
<path d="M308.871 89.6099L311.444 89.6099L311.444 87.0371L308.871 87.0371L308.871 89.6099Z" fill="white"/>
<path d="M311.447 86.9927L314.02 86.9927L314.02 84.4199L311.447 84.4199L311.447 86.9927Z" fill="white"/>
<path d="M316.575 84.4274L316.575 77.4194L314.002 77.4194L314.002 84.4274L316.575 84.4274Z" fill="white"/>
<path d="M109.977 92.1855L308.889 92.1855V89.6128L109.977 89.6128V92.1855Z" fill="white"/>
<path d="M308.871 74.7974H311.444V72.2246H308.871V74.7974Z" fill="white"/>
<path d="M311.447 77.415H314.02V74.8422H311.447V77.415Z" fill="white"/>
<path d="M109.998 72.2368H107.426V74.8096H109.998V72.2368Z" fill="white"/>
<path d="M107.426 74.8672H104.853V77.44H107.426V74.8672Z" fill="white"/>
<path d="M308.891 69.6641H109.979V72.2369H308.891V69.6641Z" fill="white"/>
<path d="M143.022 101.325L137.896 106.509L136.61 108.064V111.232L137.896 113.517L143.022 118.72L144.251 119.987H273.698L275.848 118.72L280.974 113.517L282.261 111.751V107.968L280.974 106.509L275.848 101.325L274.427 100.039H144.789L143.022 101.325Z" fill="white"/>
<path d="M143.023 116.147H140.45V118.72H143.023V116.147Z" fill="white"/>
<path d="M140.469 113.517H137.896V116.09H140.469V113.517Z" fill="white"/>
<path d="M137.89 113.517V106.509H135.317V113.517H137.89Z" fill="white"/>
<path d="M275.843 118.709L278.416 118.709L278.416 116.137L275.843 116.137L275.843 118.709Z" fill="white"/>
<path d="M278.399 116.092L280.972 116.092L280.972 113.519L278.399 113.519L278.399 116.092Z" fill="white"/>
<path d="M283.544 113.533L283.544 106.525L280.972 106.525L280.972 113.533L283.544 113.533Z" fill="white"/>
<path d="M143.02 121.266L275.845 121.266V118.693L143.02 118.693V121.266Z" fill="white"/>
<path d="M275.843 103.897H278.416V101.324H275.843V103.897Z" fill="white"/>
<path d="M278.399 106.514H280.972V103.941H278.399V106.514Z" fill="white"/>
<path d="M143.023 101.325H140.45V103.898H143.023V101.325Z" fill="white"/>
<path d="M140.469 103.956H137.896V106.528H140.469V103.956Z" fill="white"/>
<path d="M275.848 98.7715H143.022V101.344H275.848V98.7715Z" fill="white"/>
<path d="M51.6687 203.392L46.5423 208.576L45.2559 210.132V213.3L46.5423 215.584L51.6687 220.768L52.8975 222.055H82.4463L84.5967 220.768L89.7231 215.584L91.0095 213.818V210.016L89.7231 208.576L84.5967 203.392L83.1759 202.106H53.4351L51.6687 203.392Z" fill="#0009AF"/>
<path d="M51.6687 218.214H49.0959V220.787H51.6687V218.214Z" fill="white"/>
<path d="M49.115 215.584H46.5422V218.157H49.115V215.584Z" fill="white"/>
<path d="M46.532 215.577V208.569H43.9592V215.577H46.532Z" fill="white"/>
<path d="M84.5881 220.765L87.1609 220.765L87.1609 218.192L84.5881 218.192L84.5881 220.765Z" fill="white"/>
<path d="M87.1447 218.147L89.7175 218.147L89.7175 215.575L87.1447 215.575L87.1447 218.147Z" fill="white"/>
<path d="M92.2859 215.596L92.2859 208.588L89.7131 208.588L89.7131 215.596L92.2859 215.596Z" fill="white"/>
<path d="M51.6657 223.341H84.5938V220.768H51.6657V223.341Z" fill="white"/>
<path d="M84.5881 205.953H87.1609V203.38H84.5881V205.953Z" fill="white"/>
<path d="M87.1447 208.57H89.7175V205.997H87.1447V208.57Z" fill="white"/>
<path d="M51.6687 203.392H49.0959V205.965H51.6687V203.392Z" fill="white"/>
<path d="M49.115 206.022H46.5422V208.595H49.115V206.022Z" fill="white"/>
<path d="M84.5967 200.819H51.6687V203.392H84.5967V200.819Z" fill="white"/>
<path d="M109.422 203.392L104.296 208.576L103.01 210.132V213.3L104.296 215.584L109.422 220.768L110.67 222.055H140.219L142.37 220.768L147.496 215.584L148.763 213.818V210.016L147.496 208.576L142.37 203.392L140.949 202.106H111.189L109.422 203.392Z" fill="white"/>
<path d="M109.441 218.214H106.869V220.787H109.441V218.214Z" fill="white"/>
<path d="M106.869 215.584H104.296V218.157H106.869V215.584Z" fill="white"/>
<path d="M104.296 215.586V208.578H101.723V215.586H104.296Z" fill="white"/>
<path d="M142.343 220.765L144.916 220.765L144.916 218.192L142.343 218.192L142.343 220.765Z" fill="white"/>
<path d="M144.919 218.147L147.492 218.147L147.492 215.575L144.919 215.575L144.919 218.147Z" fill="white"/>
<path d="M150.05 215.586L150.05 208.578L147.477 208.578L147.477 215.586L150.05 215.586Z" fill="white"/>
<path d="M109.44 223.341H142.368V220.768H109.44V223.341Z" fill="white"/>
<path d="M142.343 205.953H144.916V203.38H142.343V205.953Z" fill="white"/>
<path d="M144.919 208.57H147.492V205.997H144.919V208.57Z" fill="white"/>
<path d="M109.441 203.392H106.869V205.965H109.441V203.392Z" fill="white"/>
<path d="M106.869 206.022H104.296V208.595H106.869V206.022Z" fill="white"/>
<path d="M142.35 200.819H109.422V203.392H142.35V200.819Z" fill="white"/>
<path d="M167.195 203.392L162.069 208.576L160.782 210.132V213.3L162.069 215.584L167.195 220.768L168.424 222.055H197.973L200.123 220.768L205.25 215.584L206.536 213.818V210.016L205.25 208.576L200.123 203.392L198.702 202.106H168.962L167.195 203.392Z" fill="#0009AF"/>
<path d="M167.195 218.214H164.622V220.787H167.195V218.214Z" fill="white"/>
<path d="M164.642 215.584H162.069V218.157H164.642V215.584Z" fill="white"/>
<path d="M162.06 215.595V208.587H159.487V215.595H162.06Z" fill="white"/>
<path d="M200.117 220.765L202.69 220.765L202.69 218.192L200.117 218.192L200.117 220.765Z" fill="white"/>
<path d="M202.674 218.147L205.247 218.147L205.247 215.575L202.674 215.575L202.674 218.147Z" fill="white"/>
<path d="M207.814 215.594L207.814 208.586L205.241 208.586L205.241 215.594L207.814 215.594Z" fill="white"/>
<path d="M167.195 223.341H200.123V220.768H167.195V223.341Z" fill="white"/>
<path d="M200.117 205.953H202.69V203.38H200.117V205.953Z" fill="white"/>
<path d="M202.674 208.57H205.247V205.997H202.674V208.57Z" fill="white"/>
<path d="M167.195 203.392H164.622V205.965H167.195V203.392Z" fill="white"/>
<path d="M164.642 206.022H162.069V208.595H164.642V206.022Z" fill="white"/>
<path d="M200.123 200.819H167.195V203.392H200.123V200.819Z" fill="white"/>
<path d="M224.949 203.392L219.822 208.576L218.555 210.132V213.3L219.822 215.584L224.949 220.768L226.197 222.055H255.745L257.896 220.768L263.022 215.584L264.309 213.818V210.016L263.022 208.576L257.896 203.392L256.475 202.106H226.715L224.949 203.392Z" fill="#0009AF"/>
<path d="M224.968 218.214H222.395V220.787H224.968V218.214Z" fill="white"/>
<path d="M222.395 215.584H219.822V218.157H222.395V215.584Z" fill="white"/>
<path d="M219.823 215.585V208.577H217.251V215.585H219.823Z" fill="white"/>
<path d="M257.872 220.765L260.445 220.765L260.445 218.192L257.872 218.192L257.872 220.765Z" fill="white"/>
<path d="M260.448 218.147L263.021 218.147L263.021 215.575L260.448 215.575L260.448 218.147Z" fill="white"/>
<path d="M265.577 215.584L265.577 208.576L263.005 208.576L263.005 215.584L265.577 215.584Z" fill="white"/>
<path d="M224.969 223.341H257.897V220.768H224.969V223.341Z" fill="white"/>
<path d="M257.872 205.953H260.445V203.38H257.872V205.953Z" fill="white"/>
<path d="M260.448 208.57H263.021V205.997H260.448V208.57Z" fill="white"/>
<path d="M224.968 203.392H222.395V205.965H224.968V203.392Z" fill="white"/>
<path d="M222.395 206.022H219.822V208.595H222.395V206.022Z" fill="white"/>
<path d="M257.877 200.819H224.949V203.392H257.877V200.819Z" fill="white"/>
<path d="M348.001 193.293L346.1 165.03L348.616 164.109L351.611 164.397L352.705 167.334L355.681 178.144L360.308 177.606L361.441 178.432L363.976 181.773L369.544 182.099L370.158 182.771L372.865 186.246L377.512 186.573L378.875 187.072L380.66 190.394L381.563 201.741L380.699 203.027L379.643 203.987L378.76 209.152L377.435 213.261L376.801 215.277L375.496 218.253L374.401 220.058L353.992 222.496L352.168 218.08L350.344 213.664L348.884 212.57L345.601 207.04L342.318 201.53L339.227 197.786L337.345 193.907L338.689 193.024L342.337 191.488L343.144 192.525L348.001 193.293Z" fill="#0009AF"/>
<path d="M351.485 212.266L348.872 212.564L349.537 218.382L352.151 218.084L351.485 212.266Z" fill="white"/>
<path d="M380.688 203.031L378.075 203.33L378.74 209.148L381.353 208.849L380.688 203.031Z" fill="white"/>
<path d="M378.73 209.156L376.117 209.455L376.782 215.273L379.395 214.974L378.73 209.156Z" fill="white"/>
<path d="M376.772 215.281L374.159 215.58L374.824 221.398L377.438 221.099L376.772 215.281Z" fill="white"/>
<path d="M354.77 217.795L352.156 218.094L352.821 223.912L355.435 223.613L354.77 217.795Z" fill="white"/>
<path d="M377.454 221.081L377.155 218.468L352.529 221.284L352.827 223.897L377.454 221.081Z" fill="white"/>
<path d="M346.083 165.028L343.47 165.327L347.263 198.499L349.876 198.2L346.083 165.028Z" fill="white"/>
<path d="M354.194 164.105L351.581 164.403L354.589 190.708L357.202 190.409L354.194 164.105Z" fill="white"/>
<path d="M348.204 206.755L345.59 207.054L346.256 212.872L348.869 212.573L348.204 206.755Z" fill="white"/>
<path d="M344.919 201.226L342.306 201.524L342.971 207.342L345.585 207.044L344.919 201.226Z" fill="white"/>
<path d="M338.664 193.025L336.051 193.324L336.594 198.073L339.207 197.775L338.664 193.025Z" fill="white"/>
<path d="M341.834 197.476L339.22 197.775L339.683 201.819L342.296 201.52L341.834 197.476Z" fill="white"/>
<path d="M347.143 194.697L346.844 192.083L343.163 192.504L343.462 195.118L347.143 194.697Z" fill="white"/>
<path d="M343.141 192.505L342.842 189.892L338.379 190.402L338.677 193.016L343.141 192.505Z" fill="white"/>
<path d="M351.596 164.378L351.297 161.765L345.804 162.393L346.103 165.006L351.596 164.378Z" fill="white"/>
<path d="M364.027 178.135L361.414 178.434L362.919 191.596L365.532 191.297L364.027 178.135Z" fill="white"/>
<path d="M361.426 178.409L361.127 175.795L355.634 176.424L355.933 179.037L361.426 178.409Z" fill="white"/>
<path d="M372.763 182.473L370.15 182.772L371.655 195.934L374.268 195.635L372.763 182.473Z" fill="white"/>
<path d="M370.148 182.74L369.85 180.126L364.356 180.755L364.655 183.368L370.148 182.74Z" fill="white"/>
<path d="M381.473 186.784L378.86 187.083L380.685 203.049L383.299 202.75L381.473 186.784Z" fill="white"/>
<path d="M378.877 187.044L378.579 184.431L373.085 185.059L373.384 187.673L378.877 187.044Z" fill="white"/>
<path d="M394.939 76.9242L393.12 75.105L391.3 76.9242L393.12 78.7434L394.939 76.9242Z" fill="white"/>
<path d="M394.919 76.9264L396.738 78.7456L400.363 75.1207L398.543 73.3015L394.919 76.9264Z" fill="white"/>
<path d="M407.631 78.7406L409.45 76.9214L407.631 75.1022L405.812 76.9214L407.631 78.7406Z" fill="white"/>
<path d="M402.175 73.2931L400.355 75.1123L403.98 78.7372L405.8 76.918L402.175 73.2931Z" fill="white"/>
<path d="M396.75 71.4794L394.931 69.6602L391.306 73.285L393.125 75.1042L396.75 71.4794Z" fill="white"/>
<path d="M393.106 64.2323L394.925 62.4131L393.106 60.5939L391.287 62.4131L393.106 64.2323Z" fill="white"/>
<path d="M393.115 64.2257L391.295 66.0449L394.92 69.6698L396.74 67.8506L393.115 64.2257Z" fill="white"/>
<path d="M405.815 62.4166L407.634 64.2358L409.453 62.4166L407.634 60.5974L405.815 62.4166Z" fill="white"/>
<path d="M405.81 62.412L403.991 60.5928L400.366 64.2177L402.186 66.0369L405.81 62.412Z" fill="white"/>
<path d="M398.554 66.0502L400.374 64.231L396.749 60.6061L394.929 62.4253L398.554 66.0502Z" fill="white"/>
<path d="M403.993 67.859L405.812 69.6782L409.437 66.0533L407.618 64.2341L403.993 67.859Z" fill="white"/>
<path d="M407.629 75.1176L409.448 73.2983L405.823 69.6735L404.004 71.4927L407.629 75.1176Z" fill="white"/>
<path d="M2.37975 242.988L4.19897 241.168L2.37974 239.349L0.560518 241.168L2.37975 242.988Z" fill="white"/>
<path d="M2.38222 242.974L0.562988 244.793L4.18786 248.418L6.00709 246.599L2.38222 242.974Z" fill="white"/>
<path d="M0.55675 255.666L2.37598 257.485L4.19521 255.666L2.37598 253.847L0.55675 255.666Z" fill="white"/>
<path d="M6.01088 250.228L4.19165 248.409L0.56678 252.034L2.38601 253.853L6.01088 250.228Z" fill="white"/>
<path d="M7.81432 244.792L9.63354 242.973L6.00866 239.348L4.18943 241.167L7.81432 244.792Z" fill="white"/>
<path d="M15.0546 241.158L16.8738 242.978L18.693 241.158L16.8738 239.339L15.0546 241.158Z" fill="white"/>
<path d="M15.0712 241.161L13.252 239.342L9.62707 242.967L11.4463 244.786L15.0712 241.161Z" fill="white"/>
<path d="M16.8944 253.843L15.0752 255.662L16.8944 257.481L18.7137 255.662L16.8944 253.843Z" fill="white"/>
<path d="M16.8893 253.859L18.7085 252.04L15.0836 248.415L13.2644 250.234L16.8893 253.859Z" fill="white"/>
<path d="M13.2606 246.6L15.0798 248.419L18.7047 244.795L16.8855 242.975L13.2606 246.6Z" fill="white"/>
<path d="M11.4425 252.042L9.62329 253.861L13.2482 257.486L15.0674 255.666L11.4425 252.042Z" fill="white"/>
<path d="M4.18566 255.668L6.00488 257.487L9.62977 253.862L7.81054 252.043L4.18566 255.668Z" fill="white"/>
<path d="M372.326 261.173L374.899 261.173L374.899 258.601L372.326 258.601L372.326 261.173Z" fill="white"/>
<path d="M372.347 261.185H369.774V266.311H372.347V261.185Z" fill="white"/>
<path d="M362.068 268.858L362.068 271.431L364.641 271.431L364.641 268.858L362.068 268.858Z" fill="white"/>
<path d="M369.764 268.873L369.764 266.3L364.637 266.3L364.637 268.873L369.764 268.873Z" fill="white"/>
<path d="M374.883 266.294L377.456 266.294L377.456 261.168L374.883 261.168L374.883 266.294Z" fill="white"/>
<path d="M382.585 268.87L382.585 271.443L385.158 271.443L385.158 268.87L382.585 268.87Z" fill="white"/>
<path d="M382.587 268.875L382.587 266.302L377.461 266.302L377.461 268.875L382.587 268.875Z" fill="white"/>
<path d="M374.9 279.136H372.328V281.709H374.9V279.136Z" fill="white"/>
<path d="M374.883 279.135L377.456 279.135L377.456 274.008L374.883 274.008L374.883 279.135Z" fill="white"/>
<path d="M377.46 271.428L377.46 274L382.586 274L382.586 271.428L377.46 271.428Z" fill="white"/>
<path d="M372.347 273.991H369.774V279.117H372.347V273.991Z" fill="white"/>
<path d="M364.637 271.43L364.637 274.002L369.763 274.002L369.763 271.43L364.637 271.43Z" fill="white"/>
<path d="M261.726 3.40137L264.299 3.40137L264.299 0.828568L261.726 0.828569L261.726 3.40137Z" fill="white"/>
<path d="M261.736 3.40479H259.163V8.53119H261.736V3.40479Z" fill="white"/>
<path d="M251.468 11.0781L251.468 13.6509L254.041 13.6509L254.041 11.0781L251.468 11.0781Z" fill="white"/>
<path d="M259.172 11.1011L259.172 8.52832L254.045 8.52832L254.045 11.1011L259.172 11.1011Z" fill="white"/>
<path d="M264.283 8.52246L266.855 8.52246L266.855 3.39606L264.283 3.39606L264.283 8.52246Z" fill="white"/>
<path d="M271.986 11.0903L271.986 13.6631L274.558 13.6631L274.558 11.0903L271.986 11.0903Z" fill="white"/>
<path d="M271.995 11.1031L271.995 8.53027L266.869 8.53027L266.869 11.1031L271.995 11.1031Z" fill="white"/>
<path d="M264.309 21.3569H261.736V23.9297H264.309V21.3569Z" fill="white"/>
<path d="M264.283 21.3438L266.855 21.3438L266.855 16.2173L264.283 16.2173L264.283 21.3438Z" fill="white"/>
<path d="M266.86 13.6479L266.86 16.2207L271.987 16.2207L271.987 13.6479L266.86 13.6479Z" fill="white"/>
<path d="M261.736 16.2305H259.163V21.3569H261.736V16.2305Z" fill="white"/>
<path d="M254.037 13.6499L254.037 16.2227L259.164 16.2227L259.164 13.6499L254.037 13.6499Z" fill="white"/>
<path d="M196.603 272.716L199.176 272.716L199.176 270.143L196.603 270.143L196.603 272.716Z" fill="white"/>
<path d="M196.609 272.723H194.037V277.85H196.609V272.723Z" fill="white"/>
<path d="M186.345 280.396L186.345 282.969L188.918 282.969L188.918 280.396L186.345 280.396Z" fill="white"/>
<path d="M194.045 280.416L194.045 277.843L188.919 277.843L188.919 280.416L194.045 280.416Z" fill="white"/>
<path d="M199.16 277.837L201.733 277.837L201.733 272.71L199.16 272.71L199.16 277.837Z" fill="white"/>
<path d="M206.863 280.408L206.863 282.981L209.436 282.981L209.436 280.408L206.863 280.408Z" fill="white"/>
<path d="M206.868 280.418L206.868 277.845L201.742 277.845L201.742 280.418L206.868 280.418Z" fill="white"/>
<path d="M199.182 290.675H196.61V293.248H199.182V290.675Z" fill="white"/>
<path d="M199.16 290.677L201.733 290.677L201.733 285.551L199.16 285.551L199.16 290.677Z" fill="white"/>
<path d="M201.738 282.966L201.738 285.539L206.864 285.539L206.864 282.966L201.738 282.966Z" fill="white"/>
<path d="M196.609 285.53H194.037V290.656H196.609V285.53Z" fill="white"/>
<path d="M188.914 282.968L188.914 285.541L194.041 285.541L194.041 282.968L188.914 282.968Z" fill="white"/>
<path d="M43.9665 55.2319L46.5393 55.2319L46.5393 52.6591L43.9665 52.6591L43.9665 55.2319Z" fill="white"/>
<path d="M43.9888 55.2256H41.416V60.352H43.9888V55.2256Z" fill="white"/>
<path d="M33.71 62.9169L33.71 65.4897L36.2828 65.4897L36.2828 62.9169L33.71 62.9169Z" fill="white"/>
<path d="M41.4038 62.9332L41.4038 60.3604L36.2774 60.3604L36.2774 62.9332L41.4038 62.9332Z" fill="white"/>
<path d="M46.5229 60.3726L49.0957 60.3726L49.0957 55.2462L46.5229 55.2462L46.5229 60.3726Z" fill="white"/>
<path d="M54.2273 62.9287L54.2273 65.5015L56.8001 65.5015L56.8001 62.9287L54.2273 62.9287Z" fill="white"/>
<path d="M54.2273 62.9351L54.2273 60.3623L49.1009 60.3623L49.1009 62.9351L54.2273 62.9351Z" fill="white"/>
<path d="M46.5425 73.1777H43.9697V75.7505H46.5425V73.1777Z" fill="white"/>
<path d="M46.5229 73.1934L49.0957 73.1934L49.0957 68.067L46.5229 68.067L46.5229 73.1934Z" fill="white"/>
<path d="M49.1021 65.4863L49.1021 68.0591L54.2285 68.0591L54.2285 65.4863L49.1021 65.4863Z" fill="white"/>
<path d="M43.9888 68.0513H41.416V73.1777H43.9888V68.0513Z" fill="white"/>
<path d="M36.2788 65.4887L36.2788 68.0615L41.4052 68.0615L41.4052 65.4887L36.2788 65.4887Z" fill="white"/>
</svg>
